<?xml version="1.0" encoding="iso-8859-1"?>
<!-- Generator: Adobe Illustrator 20.1.0, SVG Export Plug-In . SVG Version: 6.00 Build 0)  -->
<svg version="1.1" xmlns="http://www.w3.org/2000/svg" xmlns:xlink="http://www.w3.org/1999/xlink" x="0px" y="0px"
	 viewBox="0 0 68 68" style="enable-background:new 0 0 68 68;" xml:space="preserve">
<g id="Navigation_x5F_Printer_x5F_blackred_x5F_pos_x5F_rgb">
	<g id="Printer_1_">
		<rect id="XMLID_1874_" style="fill:none;" width="68" height="68"/>
		<path style="fill:#414042;" d="M57,51H11c-1.654,0-3-1.346-3-3V30c0-1.654,1.346-3,3-3h6c0.552,0,1,0.448,1,1s-0.448,1-1,1h-6
			c-0.551,0-1,0.449-1,1v18c0,0.552,0.449,1,1,1h46c0.552,0,1-0.448,1-1V30c0-0.551-0.448-1-1-1h-6c-0.553,0-1-0.448-1-1
			s0.447-1,1-1h6c1.654,0,3,1.346,3,3v18C60,49.654,58.654,51,57,51z"/>
		<path style="fill:#414042;" d="M48,45H20V17h28V45z M22,43h24V19H22V43z"/>
		<path style="fill:#414042;" d="M43.001,25H24.998c-0.552,0-1-0.448-1-1s0.448-1,1-1h18.003c0.553,0,1,0.448,1,1
			S43.554,25,43.001,25z"/>
		<path style="fill:#414042;" d="M43.001,29H24.998c-0.552,0-1-0.448-1-1s0.448-1,1-1h18.003c0.553,0,1,0.448,1,1
			S43.554,29,43.001,29z"/>
		<path style="fill:#414042;" d="M43.001,33H24.998c-0.552,0-1-0.448-1-1s0.448-1,1-1h18.003c0.553,0,1,0.448,1,1
			S43.554,33,43.001,33z"/>
		<path style="fill:#414042;" d="M43.001,37H24.998c-0.552,0-1-0.447-1-1s0.448-1,1-1h18.003c0.553,0,1,0.447,1,1
			S43.554,37,43.001,37z"/>
	</g>
</g>
<g id="Layer_1">
</g>
</svg>
