<?xml version="1.0" encoding="UTF-8" standalone="no"?>
<svg
   xmlns:dc="http://purl.org/dc/elements/1.1/"
   xmlns:cc="http://creativecommons.org/ns#"
   xmlns:rdf="http://www.w3.org/1999/02/22-rdf-syntax-ns#"
   xmlns:svg="http://www.w3.org/2000/svg"
   xmlns="http://www.w3.org/2000/svg"
   xmlns:sodipodi="http://sodipodi.sourceforge.net/DTD/sodipodi-0.dtd"
   xmlns:inkscape="http://www.inkscape.org/namespaces/inkscape"
   width="24"
   height="24"
   viewBox="0 0 24 24"
   version="1.1"
   id="svg14"
   sodipodi:docname="cartasi.svg"
   inkscape:version="0.92.3 (2405546, 2018-03-11)">
  <metadata
     id="metadata18">
    <rdf:RDF>
      <cc:Work
         rdf:about="">
        <dc:format>image/svg+xml</dc:format>
        <dc:type
           rdf:resource="http://purl.org/dc/dcmitype/StillImage" />
        <dc:title>icon-32x32-cartasi</dc:title>
      </cc:Work>
    </rdf:RDF>
  </metadata>
  <sodipodi:namedview
     pagecolor="#ffffff"
     bordercolor="#666666"
     borderopacity="1"
     objecttolerance="10"
     gridtolerance="10"
     guidetolerance="10"
     inkscape:pageopacity="0"
     inkscape:pageshadow="2"
     inkscape:window-width="1853"
     inkscape:window-height="1025"
     id="namedview16"
     showgrid="false"
     inkscape:zoom="20.85965"
     inkscape:cx="23.121176"
     inkscape:cy="12.953191"
     inkscape:window-x="67"
     inkscape:window-y="27"
     inkscape:window-maximized="1"
     inkscape:current-layer="svg14" />
  <!-- Generator: Sketch 46.2 (44496) - http://www.bohemiancoding.com/sketch -->
  <title
     id="title2">icon-32x32-cartasi</title>
  <desc
     id="desc4">Created with Sketch.</desc>
  <defs
     id="defs6" />
  <g
     id="Icons"
     style="fill:none;fill-rule:evenodd;stroke:none;stroke-width:1"
     transform="scale(0.75)">
    <g
       transform="translate(-405,-429)"
       id="icon-32x32-cartasi">
      <g
         transform="translate(405,429)"
         id="g10">
        <path
           d="M 0,7.9924054 C 0,3.5783218 3.5776607,0 7.9924054,0 H 24.007595 C 28.421678,0 32,3.5776607 32,7.9924054 V 24.007595 C 32,28.421678 28.422339,32 24.007595,32 H 7.9924054 C 3.5783218,32 0,28.422339 0,24.007595 Z"
           id="Mask"
           inkscape:connector-curvature="0"
           style="fill:#ff6e28" />
        <path
           d="M 15.19611,8.1168931 C 15.480118,8.0369991 15.77563,8 16.070135,8 h 0.02066 c 0.382343,0.00231 0.74067,0.06759 1.050038,0.1799539 0.249913,0.090831 0.467747,0.2125096 0.640654,0.3566606 0.07197,0.059899 0.138897,0.1273178 0.19768,0.2008887 0.043,0.053747 0.08154,0.1107408 0.114376,0.1707255 0.08918,0.1629496 0.135453,0.3467487 0.111856,0.5414851 -0.01822,0.149876 -0.07549,0.2929163 -0.165349,0.4249337 -0.06836,0.1003162 -0.15544,0.1943945 -0.258563,0.2803555 -0.08121,0.06767 -0.172235,0.130394 -0.271915,0.187302 -0.378984,0.213365 -0.879566,0.34316 -1.428351,0.34316 -1.182636,0 -2.141392,-0.60258 -2.141392,-1.3458085 0,-0.3934034 0.268555,-0.7473297 0.696666,-0.9934205 0.04014,-0.022815 0.08171,-0.044604 0.124537,-0.065453 0.133438,-0.064855 0.279305,-0.1200547 0.43508,-0.1638896 z M 8.2940232,16.160215 c 0,-2.998034 5.2338158,-4.015978 7.8937618,-4.015978 1.50435,0 4.692086,0.32325 6.623118,2.009057 0.248906,0.222678 0.476061,0.468683 0.674917,0.740323 0.05265,0.07178 0.103207,0.145347 0.151661,0.220713 0.116475,0.181235 0.221025,0.372981 0.31172,0.576006 0.08003,0.179185 0.05853,0.309066 -0.01604,0.379646 -0.01192,0.01137 -0.02528,0.02119 -0.0398,0.02948 -0.03191,0.01812 -0.06945,0.02863 -0.110597,0.03119 -0.120926,0.0073 -0.229927,-0.04751 -0.320705,-0.12484 -0.01789,-0.0182 -0.03544,-0.03785 -0.0524,-0.05913 -0.08683,-0.108775 -0.190626,-0.214816 -0.309453,-0.317781 -0.987224,-0.893788 -3.104347,-1.556952 -5.044029,-1.643596 -2.113429,-0.09442 -4.016162,0.495685 -4.016162,2.217807 v 2.221567 c 0,0.107409 -0.0033,0.207469 -0.0099,0.300436 -0.044,0.617961 -0.235469,0.927113 -0.594551,1.048877 -0.167365,0.05682 -0.371091,0.07289 -0.613195,0.06067 -0.657533,-0.0335 -2.331179,-0.356405 -3.4617502,-1.333163 -0.0026,-0.0022 -0.00521,-0.0044 -0.00773,-0.0067 C 8.735822,17.940614 8.2940232,17.183115 8.2940232,16.160215 Z m 9.9516828,-0.627958 c 0.175762,-0.194737 0.435332,-0.269162 0.786185,-0.269162 0.04694,0 0.0954,0.0013 0.145615,0.0038 1.033411,0.05264 4.57687,0.820132 4.57687,3.717081 C 23.754376,21.98197 18.520476,23 15.86053,23 13.971066,23 9.4261902,22.490045 8.0508282,19.411177 7.8408037,18.941212 8.329881,18.810903 8.6385775,19.197556 c 1.4128995,1.76929 7.3265025,2.839016 8.9227225,0.876613 0.007,-0.008 0.01394,-0.01632 0.02083,-0.02444 0.05207,-0.06238 0.09976,-0.127831 0.142676,-0.196446 0.174082,-0.27839 0.270823,-0.60916 0.270823,-0.997522 v -2.221567 c 0,-0.532684 0.08062,-0.883192 0.250081,-1.101939 z"
           id="Combined-Shape"
           inkscape:connector-curvature="0"
           style="fill:#ffffff" />
      </g>
    </g>
  </g>
</svg>
